# xmcd CD database file
#
# Track frame offsets:
#	150
#	24427
#	52387
#	75670
#	103392
#	127697
#	141502
#	163567
#	179555
#
# Disc length: 2680 seconds
#
# Revision: 0
# Processed by: cddbd v1.5.1PL0 Copyright (c) Steve Scherf et al.
# Submitted via: CDex 1.50beta10
#
DISCID=7d0a7609
DTITLE=KARIN KROG - GREATEST JAZZ 30
DYEAR=1966
DGENRE=Jazz
TTITLE0=I GOT YOUR NUMBER
TTITLE1=OLD FOLKS
TTITLE2=ALL OF YOU
TTITLE3=BABY WANT'T YOU PLEASE COME HOME
TTITLE4=GLAD TO BE UNHAPPY
TTITLE5=DEARLY BELOVED
TTITLE6=I CAN'T GET STARTED
TTITLE7=JUST IN TIME
TTITLE8=BODY AND SOUL
EXTD=YEAR: 1966
EXTT0=
EXTT1=
EXTT2=
EXTT3=
EXTT4=
EXTT5=
EXTT6=
EXTT7=
EXTT8=
PLAYORDER=
